<svg width="209" height="155" viewBox="0 0 209 155" fill="none" xmlns="http://www.w3.org/2000/svg">
<path d="M208.021 136.213H0V136.317H208.021V136.213Z" fill="#EBEBEB"></path>
<path d="M187.177 142.906H173.397V143.01H187.177V142.906Z" fill="#EBEBEB"></path>
<path d="M168.16 142.906H138.7V143.01H168.16V142.906Z" fill="#EBEBEB"></path>
<path d="M122.453 139.045H114.469V139.149H122.453V139.045Z" fill="#EBEBEB"></path>
<path d="M36.0915 139.744H21.8254V139.848H36.0915V139.744Z" fill="#EBEBEB"></path>
<path d="M65.7343 139.744H39.7942V139.848H65.7343V139.744Z" fill="#EBEBEB"></path>
<path d="M93.6673 141.5H78.3528V141.604H93.6673V141.5Z" fill="#EBEBEB"></path>
<path d="M98.602 117.656H18.2687C17.6393 117.655 17.0362 117.405 16.5915 116.959C16.1469 116.514 15.8972 115.91 15.8972 115.281V2.35479C15.9027 1.72908 16.1548 1.13079 16.5988 0.689887C17.0429 0.248983 17.6429 0.00107188 18.2687 0H98.602C99.2321 0 99.8363 0.250285 100.282 0.695796C100.727 1.14131 100.978 1.74555 100.978 2.37559V115.281C100.978 115.911 100.727 116.515 100.282 116.961C99.8363 117.406 99.2321 117.656 98.602 117.656ZM18.2687 0.0832085C17.6669 0.0843106 17.0902 0.324123 16.6651 0.750008C16.24 1.17589 16.0012 1.75305 16.0012 2.35479V115.281C16.0012 115.883 16.24 116.46 16.6651 116.886C17.0902 117.311 17.6669 117.551 18.2687 117.552H98.602C99.2041 117.551 99.7813 117.312 100.207 116.886C100.633 116.46 100.873 115.883 100.874 115.281V2.35479C100.873 1.75267 100.633 1.17552 100.207 0.749754C99.7813 0.323988 99.2041 0.0843083 98.602 0.0832085H18.2687Z" fill="#EBEBEB"></path>
<path d="M188.596 117.656H108.258C107.628 117.655 107.025 117.405 106.58 116.959C106.134 116.514 105.884 115.911 105.883 115.281V2.35479C105.889 1.7287 106.142 1.13042 106.587 0.689627C107.032 0.248838 107.632 0.00106019 108.258 0H188.596C189.221 0.00216528 189.82 0.25056 190.263 0.691347C190.706 1.13213 190.957 1.7298 190.963 2.35479V115.281C190.963 115.909 190.714 116.512 190.27 116.958C189.826 117.403 189.224 117.654 188.596 117.656ZM108.258 0.0832085C107.656 0.0843083 107.079 0.323988 106.653 0.749754C106.227 1.17552 105.988 1.75267 105.987 2.35479V115.281C105.988 115.883 106.227 116.46 106.653 116.886C107.079 117.312 107.656 117.551 108.258 117.552H188.596C189.198 117.551 189.775 117.312 190.201 116.886C190.626 116.46 190.866 115.883 190.867 115.281V2.35479C190.866 1.75267 190.626 1.17552 190.201 0.749754C189.775 0.323988 189.198 0.0843083 188.596 0.0832085H108.258Z" fill="#EBEBEB"></path>
<path d="M59.0946 65.623L150.811 65.623V6.05013L59.0946 6.05013L59.0946 65.623Z" fill="#E6E6E6"></path>
<path d="M57.2139 65.623L149.654 65.623V6.05013L57.2139 6.05013L57.2139 65.623Z" fill="#F0F0F0"></path>
<path d="M147.74 62.3847V9.28125L59.1191 9.28125V62.3847L147.74 62.3847Z" fill="#FAFAFA"></path>
<path d="M136.865 62.3847L125.657 9.28125H110.967L122.175 62.3847H136.865Z" fill="white"></path>
<path d="M119.795 62.3847L108.587 9.28125H101.951L113.159 62.3847H119.795Z" fill="white"></path>
<path d="M93.4676 62.3847L82.2595 9.28125H70.9265L82.1347 62.3847H93.4676Z" fill="white"></path>
<path d="M59.3647 62.3847V9.28125H59.1234V62.3847H59.3647Z" fill="#E6E6E6"></path>
<path d="M100.678 65.623H106.187L106.187 6.05013H100.678V65.623Z" fill="#F0F0F0"></path>
<path d="M106.427 62.3847V9.28125H106.186V62.3847H106.427Z" fill="#E6E6E6"></path>
<path d="M103.336 65.623H103.528L103.528 6.05013H103.336L103.336 65.623Z" fill="#E6E6E6"></path>
<path d="M168.884 133.449H185.596V89.8481H168.884V133.449Z" fill="#F0F0F0"></path>
<path d="M99.9663 136.213H182.384V133.45H99.9663V136.213Z" fill="#F0F0F0"></path>
<path d="M168.88 89.8477H96.7588V133.449H168.88V89.8477Z" fill="#F5F5F5"></path>
<path d="M162.315 95.2148H103.333V109.514H162.315V95.2148Z" fill="#F0F0F0"></path>
<path d="M162.315 113.783H103.333V128.083H162.315V113.783Z" fill="#F0F0F0"></path>
<path d="M125.366 103.346H140.272C140.714 103.346 141.071 102.988 141.071 102.547V102.185C141.071 101.744 140.714 101.386 140.272 101.386H125.366C124.925 101.386 124.567 101.744 124.567 102.185V102.547C124.567 102.988 124.925 103.346 125.366 103.346Z" fill="#F5F5F5"></path>
<path d="M125.366 121.912H140.272C140.714 121.912 141.071 121.554 141.071 121.113V120.751C141.071 120.31 140.714 119.953 140.272 119.953H125.366C124.925 119.953 124.567 120.31 124.567 120.751V121.113C124.567 121.554 124.925 121.912 125.366 121.912Z" fill="#F5F5F5"></path>
<path d="M129.127 82.5059C129.127 82.5059 128.927 89.849 121.222 89.849C113.517 89.849 113.317 82.5059 113.317 82.5059H129.127Z" fill="#F0F0F0"></path>
<path d="M147.145 82.5059C147.145 82.5059 146.941 89.849 139.24 89.849C131.54 89.849 131.336 82.5059 131.336 82.5059H147.145Z" fill="#F0F0F0"></path>
<path d="M129.127 77.6406C129.127 77.6406 128.927 84.9837 121.222 84.9837C113.517 84.9837 113.317 77.6406 113.317 77.6406H129.127Z" fill="#F0F0F0"></path>
<path d="M147.145 77.6406C147.145 77.6406 146.941 84.9837 139.24 84.9837C131.54 84.9837 131.336 77.6406 131.336 77.6406H147.145Z" fill="#F0F0F0"></path>
<path d="M165.168 82.5059C165.168 82.5059 164.956 89.8656 157.263 89.8656C149.571 89.8656 149.359 82.5225 149.359 82.5225L165.168 82.5059Z" fill="#F0F0F0"></path>
<path d="M165.168 77.6406C165.168 77.6406 164.964 84.9837 157.263 84.9837C149.563 84.9837 149.359 77.6406 149.359 77.6406H165.168Z" fill="#F0F0F0"></path>
<path d="M160.313 49.7383H170.806V29.9555H160.313V49.7383Z" fill="#E6E6E6"></path>
<path d="M157.963 49.7383H170.286V29.9555H157.963V49.7383Z" fill="#F5F5F5"></path>
<path d="M168.409 47.9781V31.7109H159.839V47.9781H168.409Z" fill="white"></path>
<path d="M176.202 62.5234H186.694V42.7407H176.202V62.5234Z" fill="#E6E6E6"></path>
<path d="M173.855 62.5234H186.178V42.7407H173.855V62.5234Z" fill="#F5F5F5"></path>
<path d="M184.298 60.7633V44.4961H175.727V60.7633H184.298Z" fill="white"></path>
<path d="M30.2671 48.3652H45.2737V20.0744L30.2671 20.0744L30.2671 48.3652Z" fill="#E6E6E6"></path>
<path d="M26.9099 48.3652H44.5376V20.0744L26.9099 20.0744L26.9099 48.3652Z" fill="#F5F5F5"></path>
<path d="M41.8496 45.851V22.5859H29.5889V45.851H41.8496Z" fill="white"></path>
<path d="M24.4217 98.0312C22.4372 92.2066 16.3838 90.0348 14.6281 86.357C12.3274 81.5393 13.1678 74.3127 15.8762 71.7041C18.2435 69.4367 23.4814 84.7636 24.0722 86.4777C26.1066 92.3647 26.3937 96.7373 26.4187 100.968C26.7681 97.3697 27.0927 94.0663 27.3381 91.516C28.1369 83.1951 28.2576 80.5242 28.2659 79.7004C28.0204 79.2843 27.7292 78.8309 27.5586 78.5812C26.1108 76.4553 22.6493 73.9257 21.1266 70.8387C18.905 66.3288 19.9617 60.9328 22.1126 58.9233C24.3593 56.8431 27.3381 61.7898 28.6611 66.7074C29.9841 71.625 28.6611 76.3388 28.7027 80.4368C28.7027 81.2397 28.4906 84.281 28.1161 88.5038C29.2061 83.9607 30.6914 80.9194 33.1086 78.1028C36.1041 74.6164 38.825 70.3644 40.9011 70.9136C42.9771 71.4628 41.184 77.0835 39.0455 81.0317C37.1359 84.5431 29.306 88.0503 27.8915 90.8752C27.3672 96.6 26.6433 103.847 25.9693 110.6C26.9512 107.113 26.5809 106.818 29.5889 101.48C31.3779 98.3057 37.6767 94.4074 38.1261 96.575C38.5754 98.7426 37.0444 102.878 34.5065 105.761C32.4596 108.091 28.5072 108.087 27.4338 109.535C27.1842 109.872 26.3313 111.161 25.8404 111.906C25.0083 120.148 24.2095 127.424 23.8808 129.904L23.4939 129.929C23.5854 129.288 24.0181 125.095 24.5756 119.528C23.9515 116.574 17.686 114.852 16.0426 111.781C14.3202 108.569 13.2468 104.817 14.4284 102.308C15.4144 100.228 20.9769 103.061 22.9697 106.531C24.2969 108.84 24.9917 111.307 25.0499 114.619C25.4243 110.837 25.8279 106.776 26.2023 102.945C25.8653 101.979 25.0166 99.7744 24.4217 98.0312Z" fill="#E6E6E6"></path>
<path d="M30.3045 136.213H17.8898C17.2075 136.213 16.6417 135.418 16.4878 134.316L15.5891 127.102H32.5885L31.7024 134.316C31.5692 135.418 30.9826 136.213 30.3045 136.213Z" fill="#E6E6E6"></path>
<path d="M32.9424 127.637H15.2357C15.0561 127.655 14.8756 127.612 14.7242 127.513C14.5728 127.415 14.4597 127.268 14.4036 127.096L14.0417 124.733C13.9876 124.371 14.3745 124.055 14.8738 124.055H33.3044C33.8036 124.055 34.1905 124.371 34.1365 124.733L33.7745 127.096C33.7198 127.268 33.6069 127.417 33.4552 127.515C33.3035 127.614 33.1223 127.657 32.9424 127.637Z" fill="#F0F0F0"></path>
<path d="M104.011 155.001C148.561 155.001 184.677 152.893 184.677 150.292C184.677 147.691 148.561 145.582 104.011 145.582C59.46 145.582 23.3445 147.691 23.3445 150.292C23.3445 152.893 59.46 155.001 104.011 155.001Z" fill="#F5F5F5"></path>
<path d="M143.572 21.7406C139.079 24.3825 142.703 27.1159 142.012 29.766C141.321 32.4162 141.392 33.2233 142.549 34.7585C143.705 36.2937 140.181 36.9469 142.769 38.3282C145.357 39.7094 155.488 38.4738 153.532 29.5913C151.577 20.7088 146.056 20.2845 143.572 21.7406Z" fill="#263238"></path>
<path d="M142.566 38.3288H142.528C141.8 38.0875 141.384 37.7921 141.255 37.4218C141.089 36.9392 141.421 36.44 141.775 35.9116C142.191 35.2626 142.607 34.6635 142.162 34.0644C142.041 33.9105 141.929 33.769 141.821 33.6483C140.889 32.4793 140.502 31.9842 141.455 29.6585C141.808 28.7931 141.571 27.9943 141.317 27.1872C140.864 25.7061 140.352 24.0253 143.506 21.6622C143.53 21.6503 143.558 21.6473 143.584 21.6536C143.611 21.66 143.634 21.6753 143.65 21.697C143.666 21.7187 143.675 21.7453 143.673 21.7724C143.672 21.7995 143.661 21.8252 143.643 21.8453C140.618 24.1127 141.084 25.6396 141.538 27.1207C141.792 27.9527 142.054 28.7848 141.671 29.7459C140.764 31.9592 141.076 32.3503 142 33.4903L142.341 33.9063C142.898 34.626 142.403 35.3666 141.966 36.0239C141.646 36.5024 141.347 36.9559 141.476 37.3303C141.58 37.6299 141.946 37.8795 142.599 38.0917C142.623 38.1013 142.644 38.1189 142.657 38.1417C142.67 38.1645 142.676 38.1912 142.672 38.2173C142.668 38.2434 142.655 38.2674 142.636 38.2854C142.617 38.3034 142.592 38.3143 142.566 38.3163V38.3288Z" fill="#263238"></path>
<path d="M145.677 48.2599C145.236 50.3152 144.729 52.3663 144.213 54.409C143.697 56.4518 143.152 58.4904 142.598 60.5207L142.39 61.282L142.286 61.6648L142.187 62.0101C142.144 62.1514 142.094 62.2902 142.037 62.4261C141.797 63.0208 141.432 63.5571 140.968 63.9988C140.532 64.402 140.024 64.7183 139.47 64.9307C138.66 65.2278 137.797 65.3553 136.936 65.3051C136.269 65.2671 135.608 65.1668 134.96 65.0056C133.814 64.7185 132.699 64.3185 131.632 63.8115C130.6 63.3337 129.607 62.7773 128.661 62.1474C128.366 61.9549 128.148 61.6645 128.046 61.3273C127.944 60.99 127.964 60.6276 128.102 60.3036C128.241 59.9796 128.489 59.7149 128.804 59.556C129.118 59.3971 129.479 59.3542 129.822 59.4348L129.905 59.4556C131.796 59.9429 133.725 60.27 135.671 60.4333C136.067 60.4544 136.464 60.4376 136.857 60.3834C137.186 60.3459 137.435 60.2378 137.423 60.192C137.41 60.1462 137.34 60.192 137.24 60.2544C137.153 60.3232 137.079 60.4079 137.023 60.504C137.023 60.504 137.023 60.5373 136.999 60.5415V60.4915L137.065 60.1005L137.202 59.31C137.564 57.2298 137.972 55.1496 138.405 53.0694C138.837 50.9892 139.308 48.909 139.857 46.8662C140.058 46.1115 140.546 45.4652 141.217 45.0652C141.888 44.6652 142.689 44.5431 143.448 44.7248C144.208 44.9066 144.866 45.3779 145.284 46.0383C145.701 46.6987 145.843 47.4959 145.681 48.2599H145.677Z" fill="#D3A267"></path>
<path d="M141.7 42.2515C139.129 43.4997 138.255 50.123 138.255 50.123L146.031 54.5788C146.031 54.5788 149.135 48.721 148.074 44.8934C147.47 42.7258 146.139 40.0798 141.7 42.2515Z" fill="#FF8800"></path>
<path d="M130.396 59.5509L128.245 58.3027L127.937 62.0471C127.937 62.0471 129.768 63.2952 131.012 61.864L131.187 60.9862C131.197 60.6979 131.129 60.4122 130.989 60.1595C130.85 59.9068 130.645 59.6964 130.396 59.5509Z" fill="#D3A267"></path>
<path d="M125.595 59.2045L125.324 60.5483C125.283 60.7066 125.303 60.8746 125.38 61.0189C125.457 61.1632 125.586 61.273 125.74 61.3263L127.937 62.0627L128.245 58.3184L126.627 58.3516C126.386 58.3643 126.156 58.454 125.97 58.6076C125.784 58.7612 125.653 58.9705 125.595 59.2045Z" fill="#D3A267"></path>
<path d="M156.473 146.254L152.517 146.342L151.781 137.326L155.737 137.234L156.473 146.254Z" fill="#D3A267"></path>
<path d="M152.271 145.854H156.652C156.728 145.851 156.802 145.877 156.86 145.926C156.918 145.975 156.955 146.045 156.964 146.12L157.463 149.586C157.473 149.673 157.465 149.762 157.438 149.846C157.411 149.93 157.367 150.008 157.308 150.073C157.249 150.139 157.176 150.191 157.096 150.227C157.015 150.263 156.928 150.281 156.839 150.28C155.308 150.255 154.576 150.164 152.646 150.164C151.46 150.164 148.069 150.289 146.405 150.289C144.741 150.289 144.683 148.67 145.361 148.521C148.419 147.863 150.578 146.956 151.601 146.091C151.79 145.935 152.027 145.851 152.271 145.854Z" fill="#263238"></path>
<g opacity="0.2">
<path d="M151.78 137.326L152.159 141.973L156.12 141.885L155.741 137.238L151.78 137.326Z" fill="black"></path>
</g>
<path d="M161.582 41.6571C161.503 40.8031 161.11 40.0089 160.479 39.4279C159.848 38.8469 159.024 38.5206 158.167 38.5119C153.345 38.4453 146.909 39.9722 143.044 41.6197C142.368 41.9071 141.785 42.3761 141.36 42.9747C140.935 43.5732 140.684 44.2779 140.635 45.0104C140.583 45.8334 140.583 46.6587 140.635 47.4817C140.402 48.4511 138.625 55.6611 142.083 56.9466C142.163 56.9761 142.245 57.0011 142.328 57.0215C143.102 60.0586 144.192 63.7031 145.715 68.0841C151.909 67.0024 162.481 64.6517 165.493 64.1234C165.751 59.4928 162.635 53.1856 161.582 41.6571Z" fill="#FF8800"></path>
<path d="M153.769 31.082C153.549 33.4701 153.661 37.7387 156.141 38.8911C156.141 38.8911 153.99 43.2304 147.928 46.201C144.346 44.1208 146.305 40.6094 146.305 40.6094C149.729 39.3862 149.309 37.5182 148.386 35.854L153.769 31.082Z" fill="#D3A267"></path>
<path d="M146.367 40.5619C146.384 40.5265 146.39 40.4874 146.386 40.4487C146.381 40.41 146.367 40.3731 146.343 40.342C146.32 40.3109 146.289 40.2867 146.253 40.272C146.217 40.2572 146.177 40.2525 146.139 40.2582C143.139 40.7284 140.976 42.093 140.456 45.7375C140.156 47.8177 139.544 50.6426 139.411 53.5965C139.374 54.4286 139.99 55.7724 140.659 56.0928C141.042 59.2963 141.724 62.4291 142.769 64.6923C143.433 64.9565 144.143 65.0856 144.857 65.0721C145.571 65.0585 146.276 64.9025 146.929 64.6133C146.929 64.6133 143.222 47.0106 146.367 40.5619Z" fill="#263238"></path>
<path d="M155.383 38.3862C151.818 39.7092 151.61 41.5523 151.989 46.6238C152.405 52.3818 154.26 59.9371 155.238 63.1448C162.531 61.6137 165.743 58.768 165.743 58.768C165.743 58.768 163.272 43.4993 162.415 40.9282C161.558 38.3571 158.071 37.3877 155.383 38.3862Z" fill="#263238"></path>
<path opacity="0.2" d="M151.572 33.0273L148.385 35.8481C148.606 36.2289 148.782 36.6338 148.91 37.0546C150.278 37.2751 151.926 35.7774 151.988 34.7331C151.976 34.141 151.834 33.5589 151.572 33.0273Z" fill="black"></path>
<path d="M153.798 26.5135C154.081 30.3743 154.281 32.0052 152.612 34.231C150.116 37.5802 145.294 37.0767 143.875 33.3781C142.59 30.0498 142.348 24.2918 145.889 22.2657C146.668 21.8162 147.548 21.573 148.447 21.5592C149.347 21.5454 150.234 21.7615 151.026 22.187C151.819 22.6124 152.489 23.2332 152.974 23.9903C153.459 24.7475 153.743 25.616 153.798 26.5135Z" fill="#D3A267"></path>
<path d="M145.731 68.0832C145.731 68.0832 143.381 91.161 144.429 103.031C145.519 115.362 150.795 141.044 150.795 141.044H157.223C157.223 141.044 157.518 112.188 155.671 99.253C158.017 86.0146 160.168 65.5828 158.97 65.7867L145.731 68.0832Z" fill="#263238"></path>
<path d="M157.68 141.219H150.341L149.883 139.243L157.967 139.002L157.68 141.219Z" fill="#FF8800"></path>
<path opacity="0.2" d="M155.737 74.7066C156.777 72.7928 157.958 72.7013 158.911 73.6665C158.387 80.3231 157.284 89.5176 156.057 96.9648C154.193 90.4121 152.188 81.2218 155.737 74.7066Z" fill="black"></path>
<path d="M186.57 133.079L182.821 134.893L177.512 127.425L181.261 125.611L186.57 133.079Z" fill="#D3A267"></path>
<path d="M182.172 134.451L185.251 131.334C185.305 131.282 185.375 131.248 185.45 131.238C185.524 131.227 185.601 131.241 185.667 131.276L188.804 133.036C188.879 133.077 188.943 133.135 188.991 133.206C189.04 133.276 189.071 133.357 189.082 133.441C189.093 133.526 189.085 133.612 189.057 133.693C189.029 133.773 188.982 133.846 188.921 133.906C187.822 134.975 187.236 135.445 185.879 136.818C185.047 137.65 182.576 140.329 181.124 141.078C179.672 141.827 178.661 140.529 179.181 140.096C181.519 138.145 181.86 136.323 181.89 135.062C181.9 134.829 182.001 134.609 182.172 134.451Z" fill="#263238"></path>
<g opacity="0.2">
<path d="M177.517 127.425L180.25 131.274L183.999 129.464L181.265 125.611L177.517 127.425Z" fill="black"></path>
</g>
<path d="M151.855 67.0094C151.855 67.0094 154.876 90.7945 160.176 101.595C165.693 112.828 178.802 130.393 178.802 130.393L183.749 128.554C183.749 128.554 176.901 108.584 169.832 96.565C169.146 83.6677 169 69.7262 165.61 64.6172L151.855 67.0094Z" fill="#263238"></path>
<path d="M184.244 128.289L178.969 131.135L177.288 129.529L183.657 125.83L184.244 128.289Z" fill="#FF8800"></path>
<path d="M181.69 135.911C181.466 136.172 181.166 136.356 180.832 136.436C180.746 136.446 180.659 136.438 180.576 136.412C180.494 136.385 180.418 136.341 180.354 136.282C180.316 136.251 180.287 136.21 180.272 136.164C180.256 136.117 180.254 136.067 180.267 136.02C180.391 135.52 182.122 134.896 182.318 134.83C182.337 134.822 182.357 134.82 182.377 134.824C182.397 134.828 182.415 134.837 182.43 134.851C182.442 134.864 182.449 134.882 182.449 134.9C182.449 134.919 182.442 134.937 182.43 134.95C182.215 135.294 181.967 135.616 181.69 135.911ZM180.554 135.911C180.511 135.95 180.478 135.999 180.458 136.053C180.454 136.073 180.455 136.093 180.462 136.112C180.469 136.131 180.48 136.148 180.495 136.161C180.537 136.2 180.586 136.23 180.64 136.248C180.694 136.266 180.751 136.272 180.808 136.265C181.145 136.228 181.64 135.791 182.118 135.088C181.559 135.279 181.034 135.557 180.562 135.911H180.554Z" fill="#FF8800"></path>
<path d="M182.43 134.967H182.397C181.902 135.167 180.579 135.308 180.275 134.988C180.204 134.913 180.15 134.78 180.308 134.572C180.431 134.425 180.605 134.33 180.795 134.306C181.469 134.21 182.376 134.784 182.413 134.809C182.426 134.818 182.437 134.829 182.444 134.843C182.452 134.857 182.455 134.872 182.455 134.888C182.455 134.916 182.446 134.944 182.43 134.967ZM180.508 134.659L180.47 134.701C180.366 134.834 180.412 134.88 180.429 134.896C180.608 135.092 181.581 135.05 182.143 134.896C181.749 134.649 181.294 134.516 180.828 134.514C180.708 134.526 180.596 134.577 180.508 134.659Z" fill="#FF8800"></path>
<path d="M147.466 28.4648C147.508 28.7768 147.379 29.0514 147.175 29.0805C146.971 29.1097 146.759 28.8767 146.73 28.5646C146.701 28.2526 146.817 27.978 147.021 27.9531C147.225 27.9281 147.425 28.1528 147.466 28.4648Z" fill="#263238"></path>
<path d="M143.951 28.9374C143.992 29.2495 143.859 29.5241 143.655 29.5532C143.452 29.5823 143.239 29.3493 143.214 29.0373C143.189 28.7253 143.302 28.4507 143.506 28.4257C143.709 28.4008 143.901 28.6254 143.951 28.9374Z" fill="#263238"></path>
<path d="M143.589 28.4309L142.811 28.3145C142.811 28.3145 143.272 28.847 143.589 28.4309Z" fill="#263238"></path>
<path d="M145.465 29.2422C145.287 29.99 145.007 30.7097 144.633 31.3806C144.807 31.473 144.999 31.5264 145.196 31.5372C145.393 31.548 145.589 31.5159 145.773 31.443L145.465 29.2422Z" fill="#630F0F"></path>
<path d="M147.628 32.4496C147.48 32.4935 147.328 32.5255 147.175 32.5453C147.163 32.5477 147.15 32.5475 147.138 32.5447C147.126 32.5419 147.115 32.5366 147.105 32.5292C147.095 32.5217 147.087 32.5122 147.081 32.5014C147.075 32.4906 147.072 32.4786 147.071 32.4663C147.069 32.4542 147.07 32.442 147.073 32.4302C147.076 32.4184 147.081 32.4074 147.088 32.3977C147.096 32.388 147.105 32.3799 147.116 32.3738C147.126 32.3677 147.138 32.3638 147.15 32.3623C147.54 32.3195 147.915 32.1839 148.242 31.9667C148.569 31.7496 148.839 31.4572 149.03 31.1141C149.043 31.096 149.062 31.083 149.084 31.0774C149.105 31.0717 149.128 31.0737 149.148 31.0831C149.169 31.0925 149.185 31.1086 149.194 31.1287C149.204 31.1488 149.206 31.1716 149.201 31.1932C149.035 31.4963 148.811 31.7635 148.541 31.9792C148.271 32.1949 147.961 32.3548 147.628 32.4496Z" fill="#263238"></path>
<path d="M155.3 29.6622C155.183 30.0645 154.983 30.4383 154.715 30.7604C154.447 31.0825 154.115 31.3459 153.74 31.5343C152.754 32.0086 152.051 31.0809 152.151 29.9742C152.243 28.9757 152.867 27.5237 153.94 27.5195C155.013 27.5154 155.6 28.6387 155.3 29.6622Z" fill="#D3A267"></path>
<path d="M142.769 22.3567C143.331 24.0208 147.346 23.4925 147.762 25.1982C148.178 26.904 148.036 28.9426 150.204 29.005C152.371 29.0674 153.074 32.1877 152.771 33.7229C152.467 35.2581 153.104 38.2494 156.981 37.2676C160.859 36.2857 162.39 32.7369 159.848 29.3628C158.421 27.4698 159.015 27.2826 159.115 25.2024C159.182 23.5091 159.115 21.1834 156.648 20.5178C154.36 19.9062 153.686 20.8048 151.452 19.1864C147.899 16.6403 141.33 18.1214 142.769 22.3567Z" fill="#263238"></path>
<path d="M148.619 27.3157C148.581 27.3238 148.541 27.3197 148.505 27.3041C148.469 27.2884 148.439 27.2619 148.419 27.2283C148.003 26.4878 146.901 26.3713 146.892 26.3713C146.843 26.367 146.798 26.3437 146.766 26.3064C146.734 26.269 146.718 26.2206 146.722 26.1716C146.724 26.1471 146.731 26.1233 146.742 26.1016C146.754 26.0799 146.769 26.0607 146.788 26.0452C146.807 26.0296 146.829 26.0181 146.853 26.0112C146.876 26.0043 146.901 26.0023 146.926 26.0052C146.98 26.0052 148.224 26.1383 148.739 27.0453C148.752 27.0659 148.76 27.0888 148.764 27.1127C148.767 27.1366 148.766 27.161 148.759 27.1843C148.753 27.2076 148.742 27.2294 148.727 27.2484C148.713 27.2674 148.694 27.2832 148.673 27.2949C148.656 27.3054 148.638 27.3125 148.619 27.3157Z" fill="#263238"></path>
<path d="M142.815 27.5455C142.787 27.5608 142.755 27.5688 142.723 27.5688C142.691 27.5688 142.66 27.5608 142.632 27.5455C142.611 27.5324 142.593 27.5153 142.579 27.4951C142.565 27.4749 142.555 27.4521 142.55 27.428C142.545 27.4039 142.545 27.3791 142.549 27.3549C142.554 27.3308 142.564 27.3079 142.578 27.2875C142.731 27.0373 142.942 26.8277 143.193 26.6763C143.444 26.525 143.728 26.4364 144.021 26.418C144.045 26.4174 144.069 26.4218 144.092 26.4308C144.114 26.4398 144.135 26.4533 144.152 26.4704C144.169 26.4875 144.182 26.5079 144.191 26.5304C144.2 26.5528 144.205 26.5769 144.204 26.6011C144.204 26.6496 144.185 26.6962 144.151 26.7305C144.116 26.7648 144.07 26.7841 144.021 26.7841C143.79 26.8038 143.567 26.8778 143.369 26.9999C143.172 27.1221 143.006 27.2891 142.885 27.4872C142.868 27.5134 142.844 27.5337 142.815 27.5455Z" fill="#263238"></path>
<path d="M162.698 41.1871C163.301 41.4825 163.804 41.7446 164.337 42.0442C164.869 42.3437 165.373 42.6433 165.884 42.9553C166.9 43.5918 167.902 44.2534 168.872 44.9814C170.907 46.449 172.74 48.1795 174.322 50.1279L174.484 50.3234C174.592 50.469 174.7 50.6188 174.779 50.7394C174.93 50.9824 175.058 51.2386 175.162 51.5049C175.326 51.9081 175.45 52.3261 175.532 52.7531C175.66 53.4397 175.734 54.1352 175.753 54.8333C175.781 56.063 175.725 57.2931 175.587 58.5152C175.325 60.8525 174.876 63.1648 174.243 65.4298C174.147 65.7762 173.931 66.0767 173.633 66.2768C173.334 66.4768 172.974 66.563 172.618 66.5196C172.261 66.4763 171.932 66.3062 171.69 66.0405C171.449 65.7748 171.311 65.4311 171.301 65.072V65.0304C171.235 62.8129 171.201 60.558 171.06 58.3987C171.005 57.3579 170.897 56.3206 170.735 55.2909C170.67 54.8575 170.568 54.4303 170.432 54.0137C170.392 53.8876 170.339 53.7662 170.274 53.6517C170.24 53.6226 170.253 53.6309 170.274 53.6517C170.288 53.6809 170.304 53.7088 170.324 53.7349L170.203 53.6143C169.507 52.9091 168.768 52.2477 167.99 51.6339C167.187 50.9974 166.325 50.3858 165.464 49.7992C164.603 49.2126 163.688 48.6384 162.768 48.0892C162.315 47.8105 161.849 47.5442 161.391 47.2572L160.043 46.4958L159.939 46.4376C159.355 46.0154 158.942 45.3964 158.777 44.6944C158.612 43.9924 158.706 43.2544 159.041 42.616C159.377 41.9776 159.931 41.4816 160.603 41.2192C161.274 40.9567 162.018 40.9453 162.698 41.1871Z" fill="#D3A267"></path>
<path d="M158.649 38.5499C162.04 38.2919 166.654 42.7352 166.654 42.7352L163.542 49.4585C163.542 49.4585 158.549 48.4891 156.615 46.022C154.56 43.3843 156.136 38.7413 158.649 38.5499Z" fill="#FF8800"></path>
<path d="M150.79 146.538C150.456 146.566 150.122 146.481 149.842 146.296C149.78 146.24 149.732 146.17 149.704 146.092C149.675 146.014 149.665 145.93 149.675 145.847C149.679 145.796 149.695 145.747 149.723 145.704C149.75 145.661 149.788 145.626 149.833 145.602C150.312 145.339 151.868 146.134 152.042 146.226C152.059 146.235 152.073 146.249 152.082 146.266C152.091 146.283 152.095 146.302 152.092 146.321C152.088 146.34 152.079 146.356 152.066 146.37C152.052 146.383 152.036 146.392 152.017 146.396C151.614 146.482 151.203 146.529 150.79 146.538ZM150.095 145.731C150.035 145.726 149.975 145.738 149.921 145.764C149.903 145.774 149.888 145.788 149.878 145.806C149.867 145.823 149.862 145.843 149.862 145.864C149.853 145.918 149.858 145.973 149.876 146.025C149.895 146.076 149.926 146.123 149.966 146.159C150.204 146.371 150.844 146.409 151.71 146.267C151.206 145.998 150.66 145.817 150.095 145.731Z" fill="#FF8800"></path>
<path d="M152.001 146.399H151.959C151.497 146.187 150.578 145.346 150.649 144.905C150.649 144.801 150.74 144.668 150.994 144.643C151.086 144.632 151.178 144.641 151.267 144.668C151.355 144.695 151.436 144.741 151.506 144.801C151.997 145.217 152.088 146.262 152.092 146.307C152.093 146.32 152.091 146.332 152.087 146.344C152.082 146.356 152.076 146.367 152.067 146.376C152.059 146.386 152.048 146.393 152.037 146.398C152.026 146.404 152.013 146.407 152.001 146.407V146.399ZM151.069 144.814H151.023C150.852 144.814 150.844 144.901 150.84 144.922C150.794 145.188 151.418 145.85 151.893 146.137C151.856 145.693 151.683 145.272 151.398 144.93C151.306 144.853 151.189 144.811 151.069 144.814Z" fill="#FF8800"></path>
<path d="M147.112 27.9563L146.334 27.8398C146.334 27.8398 146.8 28.3724 147.112 27.9563Z" fill="#263238"></path>
<path d="M165.543 63.6745L166.188 65.0016C166.258 65.1015 166.15 65.2346 165.971 65.2679L145.777 68.7959C145.635 68.8209 145.506 68.771 145.481 68.6878L145.098 67.3148C145.069 67.2191 145.178 67.1151 145.331 67.0901L165.268 63.6037C165.316 63.5907 165.367 63.5904 165.415 63.6028C165.463 63.6152 165.507 63.6399 165.543 63.6745Z" fill="white"></path>
<path d="M161.424 66.2205L161.84 66.1456C161.924 66.1456 161.982 66.0748 161.965 66.0249L161.424 64.2443C161.406 64.2143 161.378 64.1915 161.344 64.1794C161.311 64.1674 161.275 64.1668 161.241 64.1777L160.825 64.2526C160.738 64.2526 160.684 64.3192 160.696 64.3732L161.212 66.1539C161.241 66.2038 161.325 66.2371 161.424 66.2205Z" fill="#263238"></path>
<path d="M146.992 68.7412L147.408 68.6663C147.491 68.6663 147.549 68.5956 147.532 68.5457L147.017 66.765C147.017 66.7109 146.921 66.6818 146.838 66.6943L146.422 66.7692C146.338 66.7692 146.28 66.8399 146.297 66.8898L146.813 68.6705C146.825 68.7246 146.908 68.7537 146.992 68.7412Z" fill="#263238"></path>
<path d="M151.323 68.0042L154.58 67.4343C154.672 67.4343 154.734 67.3552 154.718 67.3011L154.156 65.3624C154.156 65.3041 154.052 65.2708 153.961 65.2875L150.699 65.8575C150.607 65.8575 150.545 65.9324 150.562 65.9906L151.123 67.9293C151.14 67.9834 151.231 68.0167 151.323 68.0042Z" fill="#E0E0E0"></path>
<path d="M171.284 64.3102L170.527 67.3972L174.222 67.3431C174.222 67.3431 175.324 65.1381 174.034 64.1562L171.284 64.3102Z" fill="#D3A267"></path>
<path d="M172.121 69.8307L172.778 69.8016C173.126 69.7854 173.457 69.6424 173.708 69.3996C173.958 69.1567 174.111 68.8307 174.138 68.4828L174.222 67.3262L170.527 67.3803L170.635 68.541C170.67 68.9055 170.844 69.2426 171.12 69.4827C171.397 69.7227 171.755 69.8473 172.121 69.8307Z" fill="#D3A267"></path>
<path d="M77.7004 58.8004L83.6747 65.9397C84.2107 66.5799 84.8912 67.0836 85.6602 67.4091C86.4291 67.7346 87.2644 67.8727 88.0972 67.8118L114.636 65.8606C116.616 65.7151 118.573 66.3617 120.076 67.6583C121.58 68.9549 122.507 70.7954 122.654 72.7752L126.261 121.797C126.403 123.775 125.755 125.729 124.458 127.229C123.162 128.73 121.324 129.655 119.346 129.802L45.7651 135.21C43.7845 135.356 41.8272 134.709 40.3238 133.411C38.8203 132.114 37.8938 130.272 37.7479 128.292L33.0924 65.1617C32.9905 63.7708 33.4452 62.3965 34.3565 61.3409C35.2677 60.2852 36.561 59.6348 37.9518 59.5326L73.282 56.9282C74.1142 56.867 74.9491 57.0049 75.7174 57.3305C76.4857 57.656 77.1655 58.1599 77.7004 58.8004Z" fill="#FF8800"></path>
<g opacity="0.3">
<path d="M77.7004 58.8004L83.6747 65.9397C84.2107 66.5799 84.8912 67.0836 85.6602 67.4091C86.4291 67.7346 87.2644 67.8727 88.0972 67.8118L114.636 65.8606C116.616 65.7151 118.573 66.3617 120.076 67.6583C121.58 68.9549 122.507 70.7954 122.654 72.7752L126.261 121.797C126.403 123.775 125.755 125.729 124.458 127.229C123.162 128.73 121.324 129.655 119.346 129.802L45.7651 135.21C43.7845 135.356 41.8272 134.709 40.3238 133.411C38.8203 132.114 37.8938 130.272 37.7479 128.292L33.0924 65.1617C32.9905 63.7708 33.4452 62.3965 34.3565 61.3409C35.2677 60.2852 36.561 59.6348 37.9518 59.5326L73.282 56.9282C74.1142 56.867 74.9491 57.0049 75.7174 57.3305C76.4857 57.656 77.1655 58.1599 77.7004 58.8004Z" fill="black"></path>
</g>
<path d="M64.363 61.2025L39.1733 63.0568C38.6027 63.0988 38.1742 63.5954 38.2162 64.166L38.218 64.1909C38.26 64.7614 38.7566 65.1899 39.3272 65.1479L64.5169 63.2937C65.0875 63.2517 65.516 62.7551 65.474 62.1845L65.4722 62.1596C65.4302 61.589 64.9336 61.1605 64.363 61.2025Z" fill="white"></path>
<path d="M60.7434 66.1223L39.2798 67.6247C38.7077 67.6648 38.2764 68.1611 38.3164 68.7332L38.3182 68.7582C38.3582 69.3303 38.8545 69.7616 39.4266 69.7216L60.8902 68.2191C61.4623 68.1791 61.8937 67.6828 61.8536 67.1107L61.8519 67.0857C61.8118 66.5136 61.3155 66.0823 60.7434 66.1223Z" fill="white"></path>
<path d="M121.763 127.019L44.4587 132.715C43.5252 132.781 42.6034 132.475 41.8947 131.864C41.186 131.253 40.7482 130.386 40.6769 129.453L37.1696 81.7872C37.102 80.8535 37.4074 79.931 38.0188 79.2221C38.6303 78.5132 39.4979 78.0756 40.4314 78.0054L117.74 72.3139C118.674 72.2463 119.596 72.5517 120.305 73.1631C121.014 73.7746 121.452 74.6422 121.522 75.5757L125.033 123.237C125.099 124.172 124.791 125.094 124.179 125.803C123.566 126.512 122.697 126.949 121.763 127.019Z" fill="#E0E0E0"></path>
<path d="M117.733 72.3171L41.5332 77.9262C39.5876 78.0695 38.1266 79.7627 38.2698 81.7082L41.7782 129.37C41.9214 131.315 43.6147 132.776 45.5602 132.633L121.76 127.024C123.705 126.881 125.167 125.188 125.023 123.242L121.515 75.5805C121.372 73.6349 119.678 72.1739 117.733 72.3171Z" fill="white"></path>
<path d="M48.0615 132.45L64.0125 131.273L49.5718 83.7773L48.0615 132.45Z" fill="#F5F5F5"></path>
<path d="M136.799 113.714L60.3639 126.582C59.4379 126.734 58.4895 126.512 57.7262 125.967C56.9629 125.421 56.4468 124.595 56.2908 123.67L48.3569 76.5488C48.2053 75.6233 48.4267 74.6754 48.9726 73.9127C49.5184 73.1501 50.3443 72.6349 51.2692 72.4799L127.704 59.6117C128.63 59.4589 129.579 59.6798 130.343 60.2257C131.107 60.7717 131.622 61.5982 131.777 62.524L139.711 109.649C139.86 110.574 139.638 111.52 139.093 112.281C138.547 113.043 137.723 113.558 136.799 113.714Z" fill="white"></path>
<path opacity="0.3" d="M127.701 59.6125L52.3567 72.302C50.433 72.626 49.1362 74.4481 49.4602 76.3718L57.3972 123.499C57.7212 125.422 59.5433 126.719 61.467 126.395L136.812 113.706C138.736 113.382 140.032 111.56 139.708 109.636L131.771 62.509C131.447 60.5853 129.625 59.2885 127.701 59.6125Z" fill="#FF8800"></path>
<path opacity="0.2" d="M126.735 69.7647L56.5818 81.572C56.1743 81.6395 55.7566 81.5431 55.4199 81.3038C55.0832 81.0645 54.8548 80.7018 54.7845 80.2947L54.3935 77.9524C54.3595 77.7508 54.3656 77.5445 54.4114 77.3452C54.4572 77.1459 54.5418 76.9577 54.6605 76.7911C54.7791 76.6246 54.9294 76.4831 55.1027 76.3747C55.276 76.2662 55.4691 76.193 55.6707 76.1593L125.824 64.3479C126.231 64.2792 126.649 64.3751 126.986 64.6146C127.323 64.8541 127.552 65.2175 127.621 65.6251L128.016 67.9674C128.082 68.3754 127.985 68.7931 127.745 69.1296C127.505 69.4662 127.142 69.6944 126.735 69.7647Z" fill="#FF8800"></path>
<path opacity="0.2" d="M127.492 73.9781L57.2394 85.8062C57.043 85.838 56.8549 85.9083 56.6858 86.013C56.5167 86.1177 56.37 86.2548 56.254 86.4164C56.138 86.578 56.0551 86.7609 56.01 86.9546C55.9649 87.1483 55.9586 87.349 55.9912 87.5452L56.3366 89.6254C56.3684 89.8218 56.4387 90.0099 56.5434 90.179C56.6481 90.3481 56.7852 90.4949 56.9468 90.6108C57.1084 90.7268 57.2913 90.8097 57.485 90.8548C57.6787 90.8999 57.8794 90.9063 58.0756 90.8736L128.328 79.0455C128.524 79.0137 128.712 78.9435 128.881 78.8391C129.05 78.7346 129.196 78.5979 129.312 78.4368C129.428 78.2757 129.511 78.0933 129.556 77.9C129.602 77.7068 129.609 77.5065 129.576 77.3106L129.227 75.2304C129.163 74.8345 128.944 74.4802 128.619 74.2455C128.293 74.0107 127.888 73.9145 127.492 73.9781Z" fill="#FF8800"></path>
<path d="M136.907 129.599L136.757 129.208C137.719 128.843 138.607 128.308 139.378 127.627L139.653 127.939C138.845 128.654 137.915 129.216 136.907 129.599Z" fill="#FF8800"></path>
<path d="M141.775 125.192L141.405 125.005C142.104 123.616 142.412 122.063 142.295 120.512L141.837 114.271L142.253 114.242L142.711 120.483C142.832 122.108 142.508 123.736 141.775 125.192Z" fill="#FF8800"></path>
<path d="M134.253 128.709L53.3246 134.667L45.7651 135.212C47.7711 135.064 49.6362 134.125 50.9501 132.602C52.2639 131.079 52.919 129.096 52.7713 127.09L50.3416 93.9237C50.2911 93.2673 50.371 92.6075 50.5765 91.9822C50.782 91.3568 51.1092 90.7783 51.5392 90.2799C51.9692 89.7814 52.4935 89.373 53.0819 89.078C53.6704 88.783 54.3113 88.6072 54.968 88.5609L133.45 82.7904C134.107 82.7394 134.767 82.8188 135.393 83.024C136.019 83.2293 136.598 83.5564 137.096 83.9864C137.595 84.4164 138.004 84.9409 138.299 85.5297C138.595 86.1184 138.771 86.7598 138.817 87.4168L141.259 120.604C141.403 122.608 140.747 124.587 139.433 126.106C138.119 127.626 136.256 128.562 134.253 128.709Z" fill="#FF8800"></path>
</svg>